<?xml version="1.0" encoding="UTF-8" standalone="no"?>
<!DOCTYPE svg PUBLIC "-//W3C//DTD SVG 20010904//EN" "http://www.w3.org/TR/2001/REC-SVG-20010904/DTD/svg10.dtd">
<svg version="1.0" xmlns="http://www.w3.org/2000/svg" width="500.000000pt" height="500.000000pt" viewBox="0 0 500.000000 500.000000" preserveAspectRatio="xMidYMid meet">
<metadata>
Created by potrace 1.11, written by Peter Selinger 2001-2013
</metadata>
<g transform="translate(0.000000,500.000000) scale(0.100000,-0.100000)" fill="#000000" stroke="none">
<path d="M2389 4673 c-63 -36 -117 -70 -120 -75 -3 -5 -9 -9 -13 -8 -4 1 -36 -15 -71 -35 -35 -21 -67 -37 -71 -35 -4 1 -11 -5 -16 -14 -5 -9 -13 -16 -19 -16 -5 0 -39 -18 -75 -40 -36 -22 -68 -40 -71 -40 -3 0 -17 -9 -33 -20 -15 -11 -30 -17 -34 -13 -3 3 -6 1 -6 -5 0 -6 -16 -16 -34 -23 -19 -7 -33 -15 -31 -19 2 -4 -12 -12 -31 -19 -18 -7 -34 -17 -34 -22 0 -5 -9 -9 -20 -9 -11 0 -20 -4 -20 -10 0 -5 -7 -10 -15 -10 -8 0 -15 -5 -15 -11 0 -5 -4 -8 -9 -5 -5 3 -14 -1 -21 -9 -7 -8 -19 -15 -26 -15 -8 0 -14 -4 -14 -10 0 -5 -9 -10 -20 -10 -11 0 -20 -4 -20 -8 0 -5 -21 -19 -47 -32 -27 -13 -50 -26 -53 -29 -3 -3 -18 -13 -34 -21 -16 -8 -99 -56 -185 -106 l-156 -91 -3 -825 -2 -825 162 -94 c90 -52 172 -99 183 -105 11 -6 135 -78 275 -159 140 -81 269 -156 285 -165 17 -9 54 -31 83 -49 29 -17 55 -31 57 -31 2 0 25 -13 52 -29 80 -48 266 -155 305 -175 l36 -19 62 36 c34 20 65 37 70 37 5 0 10 3 12 8 2 4 23 18 48 31 47 25 197 112 240 140 14 8 28 16 32 16 4 0 16 8 28 17 11 10 20 16 20 13 0 -3 29 13 65 35 36 22 69 40 74 40 5 0 11 3 13 8 2 4 23 18 48 31 25 14 47 27 50 30 3 3 21 14 40 23 19 10 53 29 75 42 22 14 56 33 75 44 84 46 117 66 143 84 15 11 27 16 27 11 0 -4 4 -3 8 2 4 6 18 16 31 23 24 14 42 24 146 84 33 19 71 41 85 49 14 8 27 15 30 17 3 2 5 375 6 828 l1 825 -28 20 c-15 10 -29 19 -32 19 -3 0 -42 23 -87 50 -45 28 -85 50 -90 50 -4 0 -13 7 -20 15 -7 9 -15 13 -17 11 -3 -3 -14 4 -26 14 -11 11 -24 17 -28 14 -4 -2 -12 4 -18 13 -6 10 -11 15 -11 10 0 -4 -18 4 -40 18 -22 14 -44 25 -50 25 -5 0 -10 4 -10 9 0 5 -11 12 -25 15 -14 4 -25 11 -25 16 0 6 -9 10 -20 10 -11 0 -20 5 -20 12 0 6 -3 9 -6 5 -3 -3 -15 3 -27 13 -11 11 -23 17 -27 15 -4 -3 -15 4 -25 15 -10 11 -22 17 -26 14 -5 -3 -9 0 -9 5 0 6 -7 11 -15 11 -8 0 -15 4 -15 9 0 5 -11 12 -25 15 -14 4 -25 11 -25 17 0 6 -4 8 -9 5 -5 -3 -14 1 -21 9 -7 8 -16 12 -21 9 -5 -3 -9 -1 -9 4 0 5 -24 22 -52 36 -62 31 -128 70 -145 85 -6 6 -23 13 -37 17 -14 3 -26 10 -26 16 0 5 -4 6 -10 3 -5 -3 -10 -2 -10 2 0 9 -62 49 -68 45 -1 -2 -14 6 -29 17 -14 12 -29 19 -33 16 -4 -3 -11 2 -14 11 -3 8 -10 12 -16 9 -5 -3 -10 -1 -10 4 0 6 -4 11 -9 11 -5 0 -38 17 -72 38 -35 21 -71 41 -80 44 -9 4 -63 -21 -130 -59z m131 -21 c8 -2 17 -8 18 -13 2 -5 7 -7 12 -4 4 3 13 -2 20 -10 7 -8 19 -15 26 -15 8 0 14 -4 14 -9 0 -5 12 -14 28 -20 40 -17 84 -42 111 -62 13 -10 28 -16 35 -12 6 3 8 3 4 -2 -4 -4 2 -13 15 -20 104 -55 163 -89 169 -99 4 -6 8 -7 8 -2 0 4 16 -4 36 -19 19 -15 38 -24 41 -21 3 3 14 -4 24 -16 11 -11 19 -18 19 -14 0 4 7 0 16 -8 8 -9 20 -14 25 -11 5 4 9 1 9 -5 0 -6 4 -9 9 -6 5 4 11 3 13 -1 5 -12 60 -48 96 -62 17 -8 32 -17 32 -22 0 -5 7 -9 15 -9 8 0 15 -4 15 -10 0 -5 5 -10 11 -10 5 0 7 5 3 12 -4 7 -3 8 4 4 7 -4 12 -15 12 -24 0 -13 2 -14 9 -4 7 11 9 10 15 -3 3 -9 10 -14 15 -11 5 3 12 -1 15 -10 3 -8 10 -12 16 -9 5 3 10 1 10 -4 0 -6 8 -11 18 -11 21 -1 52 -23 52 -38 0 -6 9 -9 20 -7 11 2 20 0 20 -6 0 -5 7 -9 15 -9 9 0 18 -7 21 -15 4 -8 14 -15 24 -15 9 0 27 -9 40 -20 12 -11 31 -22 41 -25 11 -4 19 -11 19 -16 0 -5 9 -9 20 -9 11 0 20 -4 20 -10 0 -5 9 -10 20 -10 11 0 20 -5 20 -12 0 -6 3 -9 6 -5 4 3 13 -1 21 -9 8 -8 19 -11 25 -8 7 4 8 2 4 -4 -4 -7 -1 -12 7 -12 12 0 14 -19 14 -95 0 -52 -4 -95 -9 -95 -5 0 -6 -6 -1 -12 12 -19 13 -91 2 -104 -6 -8 -6 -14 -1 -18 13 -8 11 -208 -2 -225 -7 -10 -7 -13 0 -8 7 4 11 -26 11 -94 1 -72 -2 -97 -10 -92 -9 5 -9 3 -1 -8 6 -8 11 -36 10 -64 -1 -27 2 -56 7 -62 5 -7 6 -13 1 -13 -11 0 -9 -223 1 -241 5 -7 4 -10 -2 -6 -6 4 -8 -20 -7 -61 1 -39 -3 -73 -9 -81 -9 -12 -9 -13 1 -7 9 6 11 1 8 -18 -3 -14 0 -26 5 -26 6 0 7 -6 2 -12 -11 -19 -10 -118 2 -118 6 0 6 -3 0 -8 -12 -8 -13 -52 -2 -69 5 -8 4 -13 -3 -13 -6 0 -10 -6 -9 -13 3 -25 -1 -38 -11 -32 -5 3 -18 -2 -28 -12 -10 -10 -25 -19 -33 -21 -7 -2 -17 -9 -21 -15 -4 -7 -8 -8 -8 -3 0 6 -7 1 -16 -10 -8 -10 -12 -12 -8 -4 5 8 -9 2 -30 -13 -20 -16 -45 -30 -54 -32 -9 -1 -16 -8 -14 -15 1 -6 -2 -8 -8 -5 -6 4 -18 -1 -26 -11 -9 -11 -13 -13 -9 -7 3 7 -14 1 -38 -15 -25 -15 -43 -30 -40 -34 2 -4 -2 -5 -10 -2 -8 3 -21 -1 -29 -9 -14 -15 -73 -48 -83 -47 -3 0 -15 -9 -27 -20 -12 -11 -27 -20 -34 -20 -6 0 -17 -7 -24 -15 -7 -8 -16 -12 -21 -9 -5 3 -9 0 -9 -6 0 -6 -4 -8 -10 -5 -5 3 -10 1 -10 -4 0 -6 -5 -11 -11 -11 -6 0 -24 -9 -40 -21 -16 -11 -29 -17 -29 -12 0 4 -5 0 -11 -10 -6 -9 -14 -15 -20 -12 -5 4 -9 1 -9 -5 0 -6 -4 -8 -10 -5 -5 3 -10 1 -10 -5 0 -6 -4 -8 -10 -5 -5 3 -10 -1 -10 -10 0 -9 -4 -14 -9 -10 -5 3 -13 0 -16 -6 -4 -5 -13 -8 -21 -5 -8 3 -13 2 -11 -2 1 -4 -2 -8 -7 -9 -5 0 -13 -8 -18 -17 -5 -9 -17 -16 -27 -16 -10 0 -24 -7 -31 -15 -7 -8 -16 -12 -21 -9 -5 3 -9 0 -9 -7 0 -7 -3 -10 -6 -6 -3 3 -14 -3 -25 -14 -10 -10 -26 -19 -34 -19 -8 0 -15 -5 -15 -11 0 -5 -4 -7 -10 -4 -5 3 -10 1 -10 -5 0 -6 -4 -8 -10 -5 -5 3 -10 2 -10 -3 0 -6 -13 -15 -30 -21 -16 -5 -30 -15 -30 -21 0 -6 -4 -8 -10 -5 -5 3 -10 1 -10 -5 0 -6 -4 -8 -10 -5 -5 3 -10 1 -10 -5 0 -6 -4 -8 -10 -5 -5 3 -10 2 -10 -2 0 -5 -9 -14 -21 -21 -17 -11 -20 -11 -14 0 3 7 0 5 -8 -4 -8 -10 -19 -18 -26 -18 -6 0 -20 -9 -31 -20 -11 -11 -20 -17 -20 -14 0 4 -7 1 -15 -6 -8 -7 -15 -9 -15 -6 0 4 -7 0 -16 -8 -18 -18 -34 -21 -34 -5 0 5 -4 8 -9 5 -5 -3 -11 1 -15 9 -3 8 -15 15 -26 15 -11 0 -20 5 -20 10 0 6 -7 10 -15 10 -8 0 -15 5 -15 11 0 5 -4 7 -10 4 -5 -3 -10 -2 -10 2 0 5 -19 18 -42 28 -24 10 -51 27 -62 37 -19 17 -31 22 -48 19 -5 0 -8 3 -8 7 0 4 -22 19 -50 33 -27 13 -50 28 -50 32 0 5 -4 5 -10 2 -5 -3 -10 -1 -10 5 0 6 -4 8 -10 5 -5 -3 -10 -2 -10 3 0 5 -18 17 -40 27 -22 10 -40 22 -40 27 0 5 -4 7 -9 4 -5 -4 -23 5 -39 19 -16 13 -32 22 -36 18 -3 -3 -6 -1 -6 5 0 7 -7 12 -16 12 -8 0 -12 4 -9 10 3 6 -1 7 -9 4 -9 -3 -16 -1 -16 6 0 6 -4 8 -10 5 -5 -3 -10 -2 -10 3 0 8 -66 44 -74 39 -3 -1 -15 8 -28 21 -14 12 -28 19 -31 15 -4 -3 -7 -1 -7 5 0 7 -7 12 -16 12 -8 0 -13 4 -10 8 2 4 -4 9 -15 9 -10 1 -26 9 -35 17 -8 9 -22 16 -30 16 -8 0 -14 4 -14 8 0 5 -18 16 -40 26 -22 10 -40 22 -40 27 0 6 -4 8 -9 5 -5 -3 -14 1 -21 9 -7 8 -16 12 -21 9 -5 -3 -9 0 -9 7 0 7 -3 10 -6 6 -3 -3 -15 3 -27 14 -11 10 -29 19 -39 19 -11 0 -16 5 -13 10 3 6 1 11 -4 11 -6 1 -17 2 -23 3 -7 1 -12 7 -10 14 1 7 -1 11 -5 10 -14 -3 -93 34 -93 43 0 5 -3 8 -7 7 -5 -1 -22 7 -39 18 -26 16 -30 23 -23 42 5 13 5 22 -1 22 -12 0 -9 22 5 32 6 5 5 8 -3 8 -10 0 -10 5 -2 20 8 15 8 20 -2 20 -9 0 -9 3 2 10 10 6 11 10 3 10 -9 0 -10 7 -3 25 6 16 6 25 -1 25 -6 0 -6 7 1 20 8 15 8 20 -1 20 -9 0 -9 3 0 14 7 8 8 17 3 20 -10 6 -9 36 2 54 4 6 3 12 -1 12 -5 0 -9 9 -9 19 0 11 4 17 8 14 9 -5 3 40 -7 57 -3 5 0 10 7 10 10 0 9 3 -1 9 -12 8 -12 12 -2 25 11 13 11 16 0 16 -10 0 -10 3 -1 12 7 7 8 17 1 30 -6 11 -6 18 0 18 6 0 6 11 1 29 -5 19 -4 33 3 40 6 6 7 11 2 11 -11 0 -12 146 -2 156 3 4 2 14 -3 24 -5 10 -6 20 -3 24 9 9 13 36 5 36 -9 0 -8 103 1 117 4 7 3 14 -2 17 -10 7 -9 25 2 44 5 7 3 12 -3 12 -7 0 -8 6 -1 18 5 10 6 23 2 30 -8 14 -7 54 3 70 4 7 3 12 -3 12 -7 0 -7 8 -1 24 5 15 5 27 -3 35 -6 6 -7 11 -2 11 6 0 10 11 10 25 0 14 -3 25 -6 25 -7 0 -2 90 5 97 3 3 1 14 -4 24 -7 12 -6 20 1 25 8 4 7 9 -2 14 -10 7 -10 11 0 24 11 13 11 16 0 16 -10 0 -11 2 -2 8 8 5 9 13 3 22 -14 22 -13 24 21 49 18 13 29 17 25 10 -4 -8 -1 -6 7 4 8 9 17 17 21 17 3 0 24 11 47 25 22 14 45 23 51 19 7 -4 8 -3 4 5 -5 7 4 15 23 22 17 6 31 15 31 21 0 5 5 6 10 3 6 -3 10 -2 10 3 0 8 13 14 48 22 4 1 11 8 15 16 4 8 12 14 17 14 13 0 134 72 138 82 2 4 7 6 12 3 5 -3 16 2 24 11 9 8 16 12 16 7 0 -4 4 -3 8 2 4 6 16 17 26 25 18 13 19 13 12 0 -4 -9 -1 -8 7 3 8 9 21 17 30 17 9 0 22 8 29 19 7 10 21 17 31 15 9 -1 15 1 12 6 -4 7 16 20 30 19 3 0 13 7 21 16 9 8 20 13 25 10 5 -4 9 -2 9 2 0 5 24 22 54 38 30 16 53 32 50 36 -2 4 4 6 13 5 10 -2 26 5 37 16 11 10 26 18 33 18 7 0 13 5 13 11 0 6 7 8 16 5 11 -4 15 -2 11 8 -4 10 -1 13 7 10 7 -3 21 2 30 11 9 9 20 14 25 10 6 -3 15 4 21 15 6 11 15 18 21 15 5 -4 9 -1 9 5 0 6 5 8 10 5 6 -3 10 -1 10 4 0 6 7 11 15 11 8 0 15 5 15 11 0 5 4 8 9 5 5 -3 12 1 15 10 3 8 10 12 16 9 5 -3 10 -1 10 5 0 6 4 9 10 5 5 -3 18 3 29 14 11 11 32 23 46 27 14 3 25 10 25 15 0 5 7 9 15 9 9 0 18 7 22 16 3 9 9 12 12 7 3 -4 13 -9 21 -11z"/>
<path d="M2518 4540 l-17 -30 72 -41 c40 -23 82 -48 94 -55 12 -8 38 -23 58 -34 20 -11 197 -113 393 -227 196 -113 377 -217 402 -231 25 -14 81 -47 125 -73 l80 -48 17 22 c10 12 18 24 18 27 0 4 -226 136 -419 245 -53 30 -164 94 -181 105 -24 15 -142 83 -245 141 -33 18 -61 37 -63 41 -2 4 -7 8 -12 8 -10 0 -270 148 -290 166 -13 11 -18 8 -32 -16z"/>
<path d="M1728 3942 l-118 -3 0 -254 0 -255 180 0 179 0 3 98 3 97 170 0 170 0 3 -605 2 -606 -97 1 -98 0 -3 -172 -2 -173 375 0 375 0 -2 173 -3 172 -90 2 c-49 1 -93 2 -96 2 -11 2 -6 1201 5 1202 37 5 327 4 335 -1 6 -3 11 -46 13 -95 l3 -90 173 -3 c159 -2 172 -1 173 15 4 72 1 485 -4 489 -5 6 -1447 11 -1649 6z m1512 -86 c0 -2 -18 -15 -40 -30 l-40 -26 -698 0 -698 0 -29 30 -29 30 767 0 c422 0 767 -2 767 -4z m70 -193 l-1 -148 -34 37 c-33 36 -35 41 -35 113 0 69 2 77 31 110 17 19 33 35 35 35 2 0 4 -66 4 -147z m-720 -644 l0 -671 -30 -30 -30 -30 0 733 0 733 30 -32 30 -33 0 -670z m195 -847 c-8 -8 -65 50 -65 67 0 8 15 30 33 49 l32 33 3 -72 c2 -39 0 -74 -3 -77z"/>
<path d="M1220 3090 l0 -710 33 0 32 0 0 710 0 710 -32 0 -33 0 0 -710z"/>
<path d="M1616 3320 c-3 -8 -5 -45 -5 -82 -1 -62 1 -68 20 -68 23 0 21 -12 -17 -95 -12 -28 -26 -63 -29 -78 -4 -15 -11 -27 -15 -27 -4 0 -11 -12 -15 -27 -3 -16 -14 -46 -24 -68 -11 -22 -31 -67 -45 -100 -40 -91 -40 -90 -82 -90 l-39 0 -3 -83 c-2 -73 -1 -82 15 -83 10 0 81 -1 158 -2 l140 0 3 81 c3 77 2 82 -18 82 -23 0 -24 5 -9 49 l11 31 124 0 125 0 15 -35 c18 -44 18 -45 -6 -45 -18 0 -20 -7 -20 -80 0 -57 4 -80 13 -81 107 -6 283 -2 292 7 11 12 14 139 3 150 -5 4 -30 9 -75 13 -7 0 -13 10 -13 21 0 11 -5 20 -12 20 -6 0 -8 3 -5 7 4 3 2 12 -4 20 -6 7 -8 13 -5 13 4 0 -2 14 -14 30 -12 17 -18 30 -14 30 3 0 1 7 -6 15 -7 8 -10 15 -7 15 3 0 -8 25 -23 55 -15 30 -25 53 -21 51 4 -3 -10 31 -31 74 -51 108 -56 130 -29 130 20 0 21 5 21 80 l0 80 -132 1 c-73 0 -152 1 -176 2 -30 1 -43 -2 -46 -13z m197 -345 l16 -45 -44 0 -43 0 19 37 c10 21 19 43 19 51 0 25 18 2 33 -43z"/>
<path d="M2788 3318 c-4 -11 -3 -87 1 -140 1 -12 9 -18 26 -18 l25 0 -2 -237 c-3 -203 -5 -238 -18 -239 -8 -1 -21 -2 -27 -3 -9 -1 -13 -24 -13 -81 0 -76 1 -80 23 -81 81 -4 259 0 265 5 7 7 4 147 -3 155 -3 2 -15 4 -27 5 -23 1 -23 2 -25 154 -1 90 2 152 8 152 5 0 8 -3 7 -7 -1 -5 9 -30 22 -58 13 -27 24 -52 25 -55 4 -13 41 -86 46 -90 3 -3 21 -40 40 -82 21 -48 40 -78 49 -78 16 1 17 2 112 210 34 74 65 137 69 140 3 3 9 12 12 20 3 8 5 -57 4 -145 -2 -120 -5 -160 -14 -161 -7 -1 -20 -2 -28 -3 -12 -1 -15 -17 -15 -81 0 -44 3 -80 8 -81 11 -1 245 -1 265 0 16 1 17 10 15 83 -3 81 -4 83 -28 83 l-25 0 -3 238 -2 237 30 0 30 0 0 85 0 85 -134 0 -134 0 -25 -52 c-14 -29 -51 -107 -83 -173 l-57 -120 -15 35 c-9 19 -15 38 -14 43 1 4 -2 7 -7 7 -8 0 -27 40 -36 75 -2 6 -23 48 -48 95 l-45 85 -125 3 c-94 2 -126 -1 -129 -10z"/>
<path d="M3710 2410 c0 -5 -6 -10 -14 -10 -7 0 -19 -7 -26 -15 -7 -8 -16 -12 -21 -9 -5 3 -9 1 -9 -4 0 -9 -50 -37 -62 -34 -5 1 -8 -2 -8 -6 0 -9 -37 -29 -54 -30 -5 0 -12 -6 -17 -14 -5 -7 -12 -13 -16 -13 -4 0 -22 -10 -39 -22 -17 -12 -34 -20 -38 -16 -3 3 -6 1 -6 -6 0 -7 -4 -10 -9 -6 -6 3 -13 -1 -18 -8 -4 -7 -24 -21 -43 -31 -19 -9 -52 -27 -72 -39 -35 -21 -52 -30 -153 -87 -22 -12 -48 -29 -57 -38 -10 -8 -18 -11 -18 -7 0 4 -9 0 -20 -10 -11 -10 -20 -14 -20 -9 0 5 -4 4 -8 -1 -7 -11 -102 -69 -112 -69 -3 0 -14 -8 -24 -18 -10 -9 -23 -15 -28 -12 -4 3 -8 2 -8 -3 0 -4 -10 -13 -23 -19 -12 -6 -66 -36 -119 -67 -54 -31 -100 -57 -103 -57 -3 0 -11 -5 -18 -10 -7 -6 -20 -16 -31 -24 -16 -11 -17 -14 -3 -28 9 -9 13 -18 10 -22 -4 -3 1 -6 10 -6 10 0 26 9 36 19 11 11 22 17 25 14 2 -3 15 4 27 16 12 11 26 18 31 15 4 -3 8 -1 8 4 0 4 16 14 35 22 19 7 37 20 40 27 2 8 9 12 14 9 4 -3 19 3 31 14 13 11 29 20 37 20 7 0 13 4 13 9 0 5 10 11 23 15 12 3 31 14 42 24 20 18 26 22 58 30 9 2 17 7 17 11 0 3 15 12 33 20 17 8 35 19 39 25 4 6 11 11 15 11 4 0 45 21 90 48 45 26 87 47 93 47 5 0 10 5 10 10 0 6 7 10 15 10 8 0 15 4 15 9 0 5 10 11 23 15 12 3 32 14 44 25 11 11 23 17 26 14 4 -3 13 2 22 11 9 9 22 16 30 16 7 0 15 4 17 9 3 7 81 54 151 89 15 7 27 18 27 24 0 6 3 9 6 5 3 -3 25 6 47 19 23 14 50 27 59 30 22 8 27 25 14 49 -12 21 -36 31 -36 15z"/>
<path d="M1772 1243 c401 -2 1055 -2 1455 0 401 1 73 2 -727 2 -800 0 -1128 -1 -728 -2z"/>
<path d="M326 1045 c-5 -15 -1 -16 54 -19 14 0 30 -4 35 -8 6 -4 10 -55 9 -126 -1 -104 1 -119 15 -117 9 2 19 4 24 4 4 1 7 55 7 121 0 89 3 120 13 121 6 1 23 3 37 4 14 1 30 3 36 4 6 0 11 8 11 16 0 22 -232 22 -241 0z"/>
<path d="M610 921 c0 -102 3 -140 13 -143 10 -4 167 -3 204 1 7 0 10 8 7 16 -5 12 -25 15 -90 15 l-84 0 0 48 0 48 74 -1 c64 -1 75 2 79 17 5 16 -3 18 -74 18 l-79 0 0 43 0 42 82 0 c71 0 83 3 86 18 3 15 -8 17 -107 17 l-111 0 0 -139z"/>
<path d="M915 994 l46 -66 -27 -42 c-15 -22 -35 -50 -45 -61 -26 -30 -27 -47 -2 -51 18 -3 30 7 59 51 20 30 40 55 43 55 3 0 23 -24 43 -54 26 -37 44 -53 58 -52 11 0 21 3 22 6 1 3 -20 37 -46 77 l-48 72 41 57 c47 66 49 74 19 74 -16 0 -32 -14 -53 -45 -16 -24 -32 -45 -35 -45 -3 0 -18 21 -35 45 -24 36 -36 45 -58 45 l-29 0 47 -66z"/>
<path d="M1189 921 c-47 -115 -54 -141 -42 -146 22 -8 38 9 57 58 16 42 17 43 62 42 50 0 54 -3 79 -67 10 -26 20 -35 32 -33 10 2 21 4 25 4 5 1 -27 85 -67 176 -7 17 -20 47 -29 68 -11 28 -21 37 -38 37 -20 0 -30 -17 -79 -139z m97 34 c19 -45 19 -45 -16 -45 -16 0 -30 3 -30 7 0 10 24 73 28 73 1 0 10 -16 18 -35z"/>
<path d="M1485 1048 c-45 -24 -60 -75 -30 -104 8 -9 43 -25 77 -36 79 -26 94 -38 79 -66 -16 -30 -71 -38 -121 -18 -49 19 -47 19 -54 1 -11 -29 64 -52 151 -46 38 2 76 43 75 80 -1 45 -14 57 -90 81 -75 25 -93 36 -86 54 12 30 103 41 120 15 9 -15 44 -10 44 7 0 34 -119 57 -165 32z"/>
<path d="M1851 926 c-30 -74 -53 -138 -53 -143 1 -4 10 -8 20 -8 10 0 26 19 42 50 24 48 27 50 68 51 47 0 49 -2 73 -60 13 -31 22 -40 42 -41 25 -2 25 -1 12 34 -7 20 -33 83 -58 141 -37 89 -48 105 -68 108 -22 3 -28 -8 -78 -132z m95 29 c19 -45 19 -45 -16 -45 -16 0 -30 3 -30 7 0 10 24 73 28 73 1 0 10 -16 18 -35z"/>
<path d="M2139 1047 c-26 -20 -32 -53 -15 -86 15 -28 15 -30 -4 -36 -19 -6 -43 -38 -45 -60 -1 -5 3 -23 8 -39 17 -50 107 -68 160 -31 19 13 23 13 43 -5 19 -19 22 -19 34 -5 11 13 9 19 -9 39 -20 21 -20 25 -7 58 16 38 13 48 -15 48 -10 0 -19 -10 -23 -25 -6 -25 -6 -25 -26 -5 -25 25 -25 25 0 50 27 27 26 75 -2 94 -27 19 -77 20 -99 3z m65 -33 c12 -12 13 -20 6 -35 -14 -25 -27 -24 -40 2 -9 15 -8 24 1 35 14 17 14 17 33 -2z m26 -174 c0 -4 -12 -12 -26 -19 -56 -25 -100 24 -61 67 l21 22 33 -32 c18 -17 33 -35 33 -38z"/>
<path d="M2372 918 c3 -135 4 -143 23 -143 19 0 20 7 20 92 0 51 3 89 7 85 4 -4 19 -41 34 -82 28 -82 36 -95 62 -95 12 0 25 23 47 87 17 47 32 89 35 92 3 3 5 -32 5 -77 -2 -97 -1 -102 25 -104 18 -2 20 5 21 50 0 89 1 211 0 225 -1 9 -12 12 -33 10 -31 -3 -33 -6 -67 -106 -19 -56 -36 -100 -38 -98 -2 2 -21 48 -42 102 -35 95 -38 99 -69 102 l-33 3 3 -143z"/>
<path d="M2883 1045 c-37 -16 -51 -54 -35 -90 8 -16 30 -29 79 -45 99 -33 109 -44 73 -80 -24 -24 -74 -26 -110 -5 -34 20 -50 18 -50 -4 0 -31 60 -48 147 -42 38 2 76 43 75 80 -1 45 -12 54 -92 81 -75 25 -93 38 -81 58 15 25 66 31 109 12 22 -10 43 -16 46 -12 15 14 3 34 -29 48 -43 18 -90 17 -132 -1z"/>
<path d="M3166 1034 c-77 -52 -74 -191 5 -238 54 -32 147 -26 192 12 15 13 16 18 4 30 -12 11 -19 10 -48 -7 -79 -48 -159 -1 -159 92 0 81 88 127 157 82 12 -8 29 -15 38 -15 26 0 16 30 -17 50 -45 28 -126 25 -172 -6z"/>
<path d="M3429 1033 c-1 -30 0 -163 0 -224 1 -31 4 -36 23 -35 22 1 23 3 23 144 0 141 0 142 -22 142 -18 0 -23 -6 -24 -27z"/>
<path d="M3542 918 l3 -143 107 0 c72 0 109 4 112 12 8 20 -5 23 -91 23 l-83 0 0 48 0 48 68 -1 c65 -2 97 8 86 26 -3 5 -39 9 -80 9 l-74 0 0 43 0 43 82 -1 c71 0 83 2 86 18 3 15 -7 17 -108 17 l-111 0 3 -142z"/>
<path d="M3812 918 c3 -135 4 -143 23 -143 18 0 20 7 20 102 0 57 1 103 2 103 2 0 34 -47 72 -104 52 -77 75 -103 88 -101 10 2 21 4 24 4 4 1 7 64 7 142 0 138 0 140 -21 137 -21 -3 -22 -8 -22 -106 0 -56 -1 -102 -2 -102 0 0 -32 47 -69 105 -60 92 -72 105 -96 105 l-29 0 3 -142z"/>
<path d="M4171 1043 c-65 -32 -91 -123 -56 -197 30 -63 127 -90 203 -56 47 21 57 34 39 49 -10 8 -24 5 -52 -9 -47 -24 -67 -25 -105 -5 -35 18 -50 43 -50 84 0 95 80 143 157 95 31 -20 55 -18 51 4 -4 24 -65 52 -113 52 -22 0 -55 -8 -74 -17z"/>
<path d="M4410 920 c0 -77 3 -141 8 -141 4 -1 53 -2 109 -3 71 -1 104 2 107 10 8 21 -5 24 -91 24 l-83 0 0 48 0 48 70 -1 c74 -1 83 2 88 23 1 9 -19 12 -78 12 l-80 0 0 43 0 43 85 -1 c75 -1 85 1 85 17 0 16 -11 18 -110 18 l-110 0 0 -140z"/>
<path d="M553 546 c-51 -23 -75 -70 -70 -139 3 -46 9 -63 32 -87 39 -41 71 -49 159 -41 20 2 75 58 81 83 27 110 -18 185 -116 194 -35 3 -65 -1 -86 -10z m95 -27 c75 -26 90 -138 25 -189 -37 -29 -79 -26 -114 9 -52 52 -32 154 35 181 11 5 21 9 22 9 1 1 15 -4 32 -10z"/>
<path d="M812 418 l3 -143 93 0 c82 0 92 2 92 17 0 16 -10 18 -70 18 l-70 0 0 125 0 125 -25 0 -26 0 3 -142z"/>
<path d="M998 533 c9 -16 35 -54 57 -87 32 -48 40 -68 41 -110 2 -66 1 -65 19 -62 24 3 29 14 28 59 -1 48 8 68 72 161 l45 66 -28 0 c-22 0 -34 -11 -66 -60 -21 -33 -42 -60 -47 -60 -5 0 -26 27 -46 60 -31 50 -43 60 -65 60 l-28 0 18 -27z"/>
<path d="M1292 418 c3 -135 4 -143 23 -143 18 0 20 7 21 78 1 42 3 85 3 95 1 9 16 -21 34 -68 38 -102 42 -109 64 -106 11 2 27 31 47 89 18 47 34 88 37 91 3 3 5 -35 4 -84 0 -50 3 -91 7 -91 42 -7 42 -8 41 104 -2 196 1 179 -34 175 -30 -3 -33 -7 -69 -108 -29 -79 -40 -100 -45 -85 -4 11 -21 58 -39 105 -30 81 -33 85 -64 88 l-33 3 3 -143z"/>
<path d="M1632 419 c3 -136 4 -144 23 -144 17 0 21 8 25 55 l5 54 58 2 c73 2 110 32 110 89 0 62 -27 79 -134 84 l-90 3 3 -143z m146 97 c12 -4 22 -10 23 -14 0 -4 2 -15 4 -25 6 -32 -30 -57 -80 -57 l-45 0 0 48 c0 27 2 51 5 54 7 7 65 3 93 -6z"/>
<path d="M1918 548 c-3 -11 -2 -221 1 -264 1 -13 32 -14 41 -2 3 4 5 67 5 140 0 128 -1 133 -21 136 -12 2 -23 -3 -26 -10z"/>
<path d="M2062 428 c-30 -73 -53 -137 -53 -143 1 -9 9 -10 41 -6 6 0 10 7 10 14 0 7 8 29 18 48 16 32 21 35 59 34 50 -1 53 -4 74 -58 13 -32 22 -41 42 -42 l26 -2 -17 41 c-86 219 -98 241 -122 244 -23 3 -29 -6 -78 -130z m94 27 c19 -45 19 -45 -16 -45 -16 0 -30 3 -30 7 0 10 24 73 28 73 1 0 10 -16 18 -35z"/>
<path d="M2312 418 l3 -143 62 0 c82 -1 113 9 147 44 57 59 43 179 -26 221 -26 15 -50 20 -111 20 l-78 0 3 -142z m157 90 c46 -28 52 -136 11 -173 -11 -10 -42 -20 -70 -23 l-50 -5 0 105 c0 58 3 107 6 111 10 9 80 0 103 -15z"/>
<path d="M2768 544 c-32 -17 -45 -56 -30 -89 8 -16 30 -29 79 -45 84 -28 99 -40 84 -68 -16 -29 -67 -37 -121 -18 -34 12 -46 12 -52 3 -10 -16 2 -26 47 -42 100 -34 203 25 174 101 -8 22 -56 49 -101 58 -83 15 -92 73 -13 81 6 1 27 -5 49 -12 49 -17 56 -16 56 2 0 39 -118 59 -172 29z"/>
<path d="M3063 541 c-47 -29 -66 -73 -61 -138 4 -41 11 -60 33 -83 85 -89 236 -42 246 75 5 67 -1 87 -38 125 -34 33 -44 37 -93 39 -40 1 -64 -4 -87 -18z m117 -26 c35 -11 55 -62 51 -127 -1 -9 -12 -29 -25 -45 -55 -65 -156 -23 -156 66 0 90 50 131 130 106z"/>
<path d="M3377 535 c-44 -31 -61 -72 -55 -137 5 -44 11 -57 42 -85 35 -32 47 -36 111 -35 43 1 58 5 90 26 24 16 26 20 12 33 -14 14 -18 14 -44 -4 -15 -10 -44 -20 -64 -22 -29 -2 -42 4 -68 29 -53 53 -40 140 27 174 33 16 65 12 107 -14 29 -18 33 -19 39 -4 8 21 1 31 -32 48 -44 22 -125 17 -165 -9z"/>
<path d="M3639 558 c-1 -4 -1 -249 0 -270 1 -10 8 -15 19 -13 9 2 19 4 22 4 3 1 5 64 5 141 0 138 0 140 -22 140 -13 0 -23 -1 -24 -2z"/>
<path d="M3750 417 l0 -143 108 2 c128 2 119 0 119 19 0 12 -17 15 -89 15 l-89 0 3 48 3 47 70 0 c65 -1 91 8 79 27 -3 4 -39 8 -80 8 l-75 0 3 43 3 42 80 0 c68 0 80 3 83 18 3 15 -8 17 -107 17 l-111 0 0 -143z"/>
<path d="M4009 543 c7 -13 22 -18 52 -18 l43 0 1 -125 c0 -118 1 -125 20 -125 19 0 20 8 23 120 2 70 7 122 13 126 6 3 28 5 48 4 30 -2 37 1 38 16 2 18 -7 19 -123 19 -116 0 -124 -1 -115 -17z"/>
<path d="M4270 553 c0 -4 23 -42 52 -86 46 -70 52 -85 53 -135 1 -50 3 -56 23 -57 23 -2 24 -1 24 60 0 46 11 70 74 160 l47 67 -29 -4 c-23 -2 -38 -16 -71 -66 l-42 -63 -43 65 c-32 48 -49 66 -65 66 -13 0 -23 -3 -23 -7z"/>
</g>
</svg>